# xmcd
#
# Track frame offsets: 
#        150
#        28470
#        52045
#        82274
#        136294
#        158000
#        180287
#        208339
#        235236
#        259590
#        292274
#
# Disc length: 4408 seconds
#
# Revision: 1
# Processed by: cddbd v1.5.2PL0 Copyright (c) Steve Scherf et al.
# Submitted via: ExactAudioCopyFreeDBPlugin 1.0
#
DISCID=a611360b
DTITLE=Whole Lotta Love - Skid Row
DYEAR=1970
DGENRE=Blues
TTITLE0=Slow Down
TTITLE1=Benedict's Cherry Wine
TTITLE2=Mr. De-Luxe
TTITLE3=Ramblin' On My Mind
TTITLE4=Goin' Up The Country
TTITLE5=Mad Dog Woman
TTITLE6=Mario (Girl Called Winter)
TTITLE7=Hony Tonk Woman
TTITLE8=Whole Lotta Love
TTITLE9=Got My Mojo Workin'
TTITLE10=Slow Down
EXTD=
EXTT0=
EXTT1=
EXTT2=
EXTT3=
EXTT4=
EXTT5=
EXTT6=
EXTT7=
EXTT8=
EXTT9=
EXTT10=
PLAYORDER=
